HIERARCHY
ROOT Hips
{
	OFFSET 0.00000 0.00000 0.00000
	CHANNELS 6 Xposition Yposition Zposition Yrotation Zrotation Xrotation 
	JOINT Lumbar
	{
		OFFSET 0 0 0
		CHANNELS 3 Zrotation Xrotation Yrotation
		JOINT Neck
		{
			OFFSET 0.00 0.2701 0.00
			CHANNELS 3 Zrotation Xrotation Yrotation
			End Site
			{
				OFFSET 0.00 0.1379 0.00
			}
		}
		JOINT RightShoulder
		{
			OFFSET 0.0119 0.2289 0.1181
			CHANNELS 3 Zrotation Xrotation Yrotation
			JOINT RightElbow
			{
				OFFSET 0.00 -0.1475 0.00
				CHANNELS 2 Zrotation Yrotation
				JOINT RightWrist
				{
					OFFSET 0.00 -0.1605 0.00
					CHANNELS 2 Zrotation Xrotation
					End Site
					{
						OFFSET 0.0040 -0.1068 0.0006
					}
				}
			}
		}
		JOINT LeftShoulder
		{
			OFFSET 0.0119 0.2289 -0.1181
			CHANNELS 3 Zrotation Xrotation Yrotation
			JOINT LeftElbow
			{
				OFFSET 0.00 -0.1475 0.00
				CHANNELS 2 Zrotation Yrotation
				JOINT LeftWrist
				{
					OFFSET 0.00 -0.1605 0.00
					CHANNELS 2 Zrotation Xrotation
					End Site
					{
						OFFSET 0.0040 -0.1068 -0.0006
					}
				}
			}
		}
	}
	JOINT RightHip
	{
		OFFSET 0.0316 -0.0424 0.0458
		CHANNELS 3 Zrotation Xrotation Yrotation
		JOINT RightKnee
		{
			OFFSET 0.00 -0.2438 0.00
			CHANNELS 1 Zrotation
			JOINT RightAnkle
			{
				OFFSET 0.00 -0.2449 0.00
				CHANNELS 3 Zrotation Xrotation Yrotation
				End Site
				{
					OFFSET 0.1237 -0.0542 0.0051
				}
			}
		}
	}
	JOINT LeftHip
	{
		OFFSET 0.0316 -0.0424 -0.0458
		CHANNELS 3 Zrotation Xrotation Yrotation
		JOINT LeftKnee
		{
			OFFSET 0.00 -0.2438 0.00
			CHANNELS 1 Zrotation
			JOINT LeftAnkle
			{
				OFFSET 0.00 -0.2449 0.00
				CHANNELS 3 Zrotation Xrotation Yrotation
				End Site
				{
					OFFSET 0.1237 -0.0542 -0.0051
				}
			}
		}
	}
}
MOTION
Frames: 33
Frame Time: 0.02
-0.00148 0.00144 -0.00015 67.4817 -20.91144 -9.73232 41.67793 -0.8906 -8.04083 -16.3184 7.7049 -1.22659 -22.23508 -5.34482 -11.86872 29.6724 94.99545 8.23593 1.54411 -24.97838 4.58381 7.16691 32.1864 -83.53544 9.29231 1.52919 26.9401 -3.15685 -7.00438 -20.38583 -6.90572 -3.91029 -4.13961 32.56493 3.3016 -0.26569 -24.3264 -6.48477 2.05176 3.24449
-0.00076 0.00119 -0.00087 67.58462 -20.98479 -9.73198 41.75827 -0.92615 -7.95321 -16.18971 7.70883 -1.22775 -22.07895 -5.23182 -11.77397 29.53942 94.94364 8.19844 1.54873 -24.95755 4.61565 7.04033 32.26509 -87.91361 10.79587 0.85227 26.92999 -3.13927 -7.2501 -20.40958 -6.88057 -3.89659 -4.13219 32.58973 3.41379 -0.0322 -24.37641 -6.47769 2.0272 3.22988
-5e-05 0.00095 -0.00158 67.68724 -21.05795 -9.73157 41.8385 -0.96164 -7.86598 -16.06132 7.71253 -1.22891 -21.92352 -5.11885 -11.68039 29.40762 94.90044 8.16326 1.55475 -24.93688 4.64743 6.91418 32.3437 -92.27968 12.29502 0.17708 26.9198 -3.12178 -7.49526 -20.43324 -6.85548 -3.88293 -4.12478 32.61434 3.52574 0.20099 -24.42624 -6.47064 2.00267 3.21529
0.00067 0.0007 -0.0023 67.78983 -21.13109 -9.73123 41.91862 -0.99708 -7.77865 -15.93302 7.71643 -1.23007 -21.76789 -5.00611 -11.58615 29.27517 94.85079 8.12642 1.5597 -24.91613 4.67916 6.78805 32.42217 -96.64492 13.7941 -0.49787 26.90971 -3.10425 -7.74025 -20.45692 -6.83041 -3.86928 -4.11739 32.63906 3.6376 0.43382 -24.47609 -6.46357 1.97818 3.20073
0.00139 0.00045 -0.00301 67.89273 -21.2044 -9.73099 41.99878 -1.03258 -7.69089 -15.80444 7.72064 -1.23123 -21.61151 -4.89354 -11.49022 29.14126 94.78766 8.08598 1.56244 -24.89521 4.71099 6.66132 32.50068 -101.02081 15.29721 -1.17424 26.89972 -3.08662 -7.98574 -20.48068 -6.80527 -3.85559 -4.10998 32.664 3.74966 0.66682 -24.52613 -6.45649 1.95369 3.18615
0.0021 0.00021 -0.00372 67.99478 -21.27722 -9.73021 42.07916 -1.06803 -7.60477 -15.67647 7.72325 -1.23239 -21.45811 -4.77979 -11.40147 29.01391 94.78527 8.06158 1.57517 -24.87506 4.74268 6.53628 32.57951 -105.36547 16.78778 -1.84682 26.8891 -3.06944 -8.23021 -20.50414 -6.78029 -3.84197 -4.10259 32.68791 3.86141 0.9004 -24.57553 -6.4495 1.92906 3.17154
0.00282 -4e-05 -0.00444 68.09838 -21.35096 -9.73052 42.15903 -1.10355 -7.51546 -15.54742 7.7291 -1.23354 -21.29879 -4.66832 -11.29889 28.8735 94.66541 8.00621 1.56857 -24.85336 4.77449 6.4084 32.65754 -109.77039 18.30262 -2.52669 26.8798 -3.05136 -8.47639 -20.52818 -6.75504 -3.82824 -4.09517 32.71391 3.97363 1.13246 -24.62616 -6.44231 1.90475 3.15702
0.00353 -0.00028 -0.00515 68.20064 -21.42383 -9.72982 42.23934 -1.139 -7.42905 -15.41938 7.73192 -1.2347 -21.14512 -4.55516 -11.20809 28.74513 94.64522 7.97707 1.57837 -24.8331 4.80643 6.28238 32.73643 -114.11568 19.79383 -3.1991 26.86921 -3.03413 -8.72116 -20.55168 -6.73002 -3.8146 -4.08777 32.73792 4.08545 1.36609 -24.67565 -6.43532 1.88012 3.14241
0.00425 -0.00052 -0.00587 68.30091 -21.49578 -9.72791 42.32034 -1.17439 -7.34633 -15.29242 7.73119 -1.23587 -20.99758 -4.43816 -11.13571 28.63155 94.78275 7.98963 1.61411 -24.81458 4.83761 6.1616 32.81597 -118.40629 21.2618 -3.86568 26.85732 -3.01786 -8.96367 -20.57456 -6.70534 -3.80112 -4.08043 32.7597 4.19674 1.60117 -24.72378 -6.42853 1.8552 3.12772
0.00496 -0.00081 -0.00658 68.41158 -21.57345 -9.73302 42.39783 -1.21018 -7.24281 -15.15879 7.75132 -1.23699 -20.81243 -4.33791 -10.96945 28.43311 94.12084 7.79126 1.51836 -24.786 4.87038 6.01961 32.89054 -123.06639 22.88051 -4.57573 26.85375 -2.99581 -9.21757 -20.6011 -6.67885 -3.78686 -4.07283 32.79493 4.31093 1.8265 -24.77983 -6.42046 1.83222 3.11357
0.0057 -0.00098 -0.00729 68.501 -21.63876 -9.7233 42.48244 -1.2451 -7.18291 -15.03956 7.72719 -1.23822 -20.70809 -4.2058 -10.99343 28.4135 95.07566 8.01914 1.68855 -24.77866 4.90157 5.91667 32.97639 -126.91143 24.17018 -5.1876 26.83209 -2.98612 -9.44846 -20.61989 -6.65609 -3.77416 -4.06574 32.80142 4.41907 2.07323 -24.81912 -6.41515 1.805 3.09822
0.00653 -0.00085 -0.00799 68.52601 -21.67212 -9.67275 42.58911 -1.27778 -7.24604 -14.95781 7.58217 -1.23979 -20.8146 -3.95623 -11.61012 28.89113 101.10111 9.58703 2.6925 -24.82997 4.91326 5.96998 33.08654 -128.79973 24.642 -5.58234 26.76447 -3.00922 -9.60684 -20.61735 -6.64441 -3.76656 -4.06032 32.7309 4.51005 2.37193 -24.81244 -6.41691 1.76718 3.07995
0.0074 -0.00061 -0.00867 68.53089 -21.69258 -9.60738 42.70247 -1.30952 -7.35232 -14.89112 7.39251 -1.24149 -21.00333 -3.67998 -12.4055 29.54694 108.64166 11.55405 3.94566 -24.9025 4.92584 6.0544 33.20889 -129.82399 24.76985 -5.86988 26.67783 -3.04481 -9.74358 -20.60703 -6.63635 -3.7604 -4.05536 32.63103 4.595 2.69278 -24.78895 -6.4215 1.72496 3.06043
0.00825 -0.00042 -0.00936 68.54888 -21.71782 -9.54887 42.8111 -1.34168 -7.43677 -14.81862 7.22299 -1.24313 -21.16283 -3.43585 -13.072 30.11718 115.06312 13.22378 5.01505 -24.96513 4.94835 6.09129 33.33046 -131.05297 24.99682 -6.17098 26.59773 -3.0756 -9.89672 -20.60031 -6.62605 -3.75299 -4.04997 32.54356 4.68314 3.00867 -24.77315 -6.42512 1.68401 3.04119
0.00911 -0.00024 -0.01006 68.54982 -21.74813 -9.4897 42.92682 -1.37409 -7.53089 -14.7409 7.05429 -1.24475 -21.29214 -3.10824 -13.93701 30.70795 123.2676 15.37258 6.37675 -25.02902 4.9286 6.26514 33.43342 -133.04804 25.45564 -6.61587 26.52721 -3.10324 -10.02325 -20.59334 -6.61815 -3.74796 -4.04544 32.46058 4.76961 3.30547 -24.75706 -6.42749 1.64589 3.02304
0.00997 -1e-05 -0.01072 68.58185 -21.76418 -9.42854 43.02944 -1.40548 -7.61483 -14.67873 6.87292 -1.24645 -21.4988 -2.94695 -14.43478 31.29724 128.16465 16.63198 7.19608 -25.09514 4.99537 6.16619 33.57618 -133.27481 25.36122 -6.74138 26.43132 -3.13973 -10.19861 -20.58499 -6.60626 -3.73851 -4.03931 32.36056 4.85783 3.64423 -24.73764 -6.43303 1.60115 3.00245
0.01078 0.00039 -0.0113 68.70112 -21.74997 -9.36418 43.09312 -1.43637 -7.6621 -14.64546 6.67104 -1.24837 -21.9405 -3.26247 -13.83685 31.85313 123.14112 15.21552 6.39133 -25.16374 5.31561 5.26218 33.8424 -128.55332 23.72622 -5.96388 26.27875 -3.20363 -10.52683 -20.57524 -6.58102 -3.71471 -4.0278 32.22789 4.95502 4.11982 -24.71285 -6.44751 1.53648 2.97425
0.0116 0.00084 -0.01184 68.85256 -21.72105 -9.29851 43.14337 -1.4658 -7.69709 -14.62871 6.45741 -1.25037 -22.44864 -3.74443 -12.86754 32.40339 114.81134 12.91181 5.04384 -25.23364 5.7201 4.09064 34.14563 -122.13209 21.56329 -4.87731 26.10031 -3.275 -10.90263 -20.56429 -6.55189 -3.68668 -4.01478 32.07832 5.05368 4.63217 -24.68545 -6.46494 1.46581 2.94385
0.01243 0.00125 -0.01241 68.99221 -21.69458 -9.23442 43.20075 -1.49462 -7.73661 -14.61183 6.24674 -1.25231 -22.90004 -4.14273 -12.09641 32.94078 108.27171 11.09568 3.98822 -25.30185 6.07639 3.07071 34.4205 -116.67333 19.70741 -3.96356 25.92721 -3.33887 -11.24825 -20.55352 -6.52553 -3.6618 -4.00302 31.93099 5.14994 5.11007 -24.65933 -6.4804 1.39971 2.91523
0.01321 0.00171 -0.01294 69.12118 -21.6843 -9.16598 43.25488 -1.52907 -7.78277 -14.56652 6.04416 -1.25432 -23.46956 -4.57317 -11.21826 33.53009 100.58219 8.94175 2.75219 -25.37515 6.4747 1.92571 34.74264 -110.39018 17.5613 -2.91029 25.77796 -3.42007 -11.629 -20.54394 -6.49519 -3.632 -3.98893 31.80317 5.25335 5.66271 -24.63183 -6.49854 1.32575 2.88327
0.01408 0.00209 -0.01353 69.27784 -21.63852 -9.10609 43.31145 -1.55111 -7.81074 -14.58143 5.823 -1.25621 -23.80379 -4.97754 -10.45887 34.03199 94.46853 7.26998 1.75757 -25.43824 6.80532 0.9765 34.97731 -105.42173 15.8923 -2.07457 25.57639 -3.46734 -11.94847 -20.5318 -6.47203 -3.6112 -3.97923 31.63414 5.34223 6.0693 -24.60729 -6.51188 1.26672 2.85775
0.01521 0.00227 -0.01434 69.52496 -21.48309 -9.07365 43.38481 -1.54195 -7.7988 -14.78183 5.55027 -1.25764 -23.50369 -5.26042 -10.23552 34.08789 93.62972 7.19045 1.57997 -25.46913 6.92983 0.63933 34.93984 -104.59507 15.72889 -1.92576 25.20665 -3.41402 -12.08471 -20.51205 -6.47084 -3.61813 -3.98297 31.32731 5.39157 6.05367 -24.5874 -6.51015 1.25081 2.85076
0.01642 0.00238 -0.01519 69.79536 -21.294 -9.04934 43.45822 -1.51974 -7.76734 -15.0379 5.26057 -1.25899 -22.95717 -5.51278 -10.12279 34.09614 94.46127 7.61538 1.65938 -25.48984 6.98309 0.50677 34.81615 -105.14024 16.05543 -2.00576 24.78926 -3.32704 -12.1583 -20.4899 -6.47684 -3.63392 -3.99102 30.98342 5.42633 5.89189 -24.57128 -6.50376 1.24996 2.85026
0.01758 0.00252 -0.01598 70.04024 -21.13204 -9.01895 43.52913 -1.50189 -7.73989 -15.25312 4.98028 -1.26037 -22.50355 -5.78539 -9.88029 34.25716 94.44623 7.78015 1.60849 -25.51814 7.06798 0.27699 34.74712 -104.99453 16.11966 -1.97379 24.41549 -3.25889 -12.26206 -20.46948 -6.47863 -3.64444 -3.99648 30.67714 5.4669 5.80297 -24.55643 -6.50011 1.24212 2.84675
0.0188 0.00266 -0.01695 70.34725 -20.92508 -8.99827 43.61648 -1.49108 -7.73278 -15.53437 4.69031 -1.26165 -22.13695 -6.03813 -9.95622 33.85408 94.68886 8.04963 1.59639 -25.53586 7.15881 0.05738 34.61768 -105.0591 16.32915 -1.96199 23.95459 -3.17662 -12.35978 -20.44655 -6.48395 -3.66004 -4.00451 30.28913 5.51 5.68672 -24.52953 -6.49363 1.23517 2.84363
0.01991 0.00279 -0.01756 70.53251 -20.79717 -8.9597 43.66171 -1.46195 -7.67853 -15.69134 4.41924 -1.2633 -21.52461 -6.32126 -9.40547 34.62781 94.83098 8.22615 1.57083 -25.57083 7.21945 -0.13333 34.58856 -105.05201 16.36374 -1.96991 23.65601 -3.11502 -12.45523 -20.42801 -6.48407 -3.66725 -4.00828 30.05457 5.54554 5.59401 -24.52786 -6.49229 1.22943 2.84101
0.02069 0.00293 -0.01718 70.3538 -20.95722 -8.86628 43.66206 -1.39081 -7.50145 -15.48883 4.18258 -1.26429 -20.3331 -6.7079 -7.05111 38.54551 94.33198 8.08134 1.45442 -25.67648 7.21223 -0.27521 34.89733 -104.35407 15.75974 -1.94727 23.89035 -3.12437 -12.55403 -20.42467 -6.46471 -3.64879 -3.99892 30.32581 5.55312 5.58518 -24.60174 -6.50276 1.22861 2.84042
0.02135 0.00307 -0.01644 70.05566 -21.18822 -8.75516 43.60852 -1.301 -7.27723 -15.15943 3.96977 -1.26593 -18.89258 -7.1226 -4.07275 43.6669 93.6839 7.82058 1.317 -25.79626 7.17715 -0.39683 35.30312 -103.56733 14.97139 -1.94199 24.27796 -3.15474 -12.65344 -20.42545 -6.44045 -3.62167 -3.98519 30.74103 5.55524 5.60726 -24.69965 -6.5191 1.22767 2.83974
0.02206 0.00321 -0.01586 69.82657 -21.34446 -8.65451 43.53061 -1.21581 -7.07293 -14.89019 3.7604 -1.26847 -17.54334 -7.51628 -1.41208 48.31943 93.08895 7.57683 1.18537 -25.89572 7.15555 -0.53944 35.63735 -102.94251 14.2946 -1.95143 24.54536 -3.17156 -12.75622 -20.42268 -6.42073 -3.59872 -3.97364 31.04027 5.56731 5.62708 -24.78205 -6.53516 1.22319 2.83756
0.0228 0.00336 -0.0153 69.53614 -21.67232 -8.54418 43.65164 -1.14522 -6.87414 -14.61362 3.48984 -1.26615 -16.28845 -7.94591 1.38917 52.65745 92.60513 7.4944 1.07653 -26.05236 7.12758 -0.62717 36.08171 -101.88154 13.52056 -1.87975 25.01724 -3.20347 -12.84184 -20.42668 -6.39176 -3.57499 -3.96138 31.54423 5.5488 5.59532 -24.88383 -6.54136 1.23384 2.8419
0.02344 0.00349 -0.0146 69.34455 -21.66841 -8.44936 43.35472 -1.04154 -6.65312 -14.31988 3.35303 -1.27389 -14.76791 -8.30522 4.04696 57.91551 91.84155 7.04995 0.9141 -26.09482 7.10778 -0.82475 36.32445 -101.65224 12.89486 -1.97 25.10939 -3.21012 -12.96364 -20.41787 -6.38045 -3.5508 -3.94953 31.66572 5.59105 5.67617 -24.95108 -6.56906 1.21345 2.83285
0.02383 0.00359 -0.01358 69.45732 -20.65846 -8.40487 41.83717 -0.83744 -6.3806 -14.02323 3.57637 -1.31122 -12.69143 -8.48379 6.15613 65.60204 90.26627 5.56459 0.59059 -25.80606 7.1124 -1.35042 35.95595 -104.07218 12.75952 -2.57461 24.03646 -3.13557 -13.1898 -20.37034 -6.42224 -3.52676 -3.93969 30.61582 5.81843 6.09616 -24.91554 -6.65895 1.10115 2.78421
0.02411 0.00366 -0.01242 69.67322 -19.32548 -8.37608 39.91544 -0.60324 -6.08771 -13.7111 3.93423 -1.35831 -10.33782 -8.58647 8.0986 74.13683 88.42075 3.72959 0.21649 -25.40422 7.12745 -1.98443 35.38734 -107.26971 12.77206 -3.32832 22.59065 -3.03609 -13.4516 -20.31024 -6.48139 -3.50266 -3.93043 29.19077 6.10439 6.62265 -24.84477 -6.76951 0.95866 2.72255
